<mxfile host="app.diagrams.net" modified="2024-06-21T10:23:23.133Z" agent="Mozilla/5.0 (Macintosh; Intel Mac OS X 10_15_7) AppleWebKit/537.36 (KHTML, like Gecko) Chrome/125.0.0.0 Safari/537.36" version="24.6.0" etag="NZwxCLfm5qX8nTQm70Tv" type="github">
  <diagram name="Page-1" id="SOE6ELaQc--tC6EBJyUm">
    <mxGraphModel>
      <root>
        <mxCell id="0" />
        <mxCell id="1" parent="0" />
      </root>
    </mxGraphModel>
  </diagram>
</mxfile>
